<svg xmlns="http://www.w3.org/2000/svg" width="36" height="24" viewBox="0 0 36 24">
  <g fill="#FFF" fill-rule="evenodd">
    <path d="M31.9674276,3.7674676 C32.7236162,3.22648592 33.7156812,3.15387276 34.5415634,3.57905642 C35.3674456,4.00424009 35.8901584,4.85669662 35.8978594,5.79094676 L35.9999163,17.6459771 C36.0076843,18.6025117 35.474493,19.4801621 34.6253949,19.9084843 C33.7762969,20.3368065 32.7592443,20.2411671 32.0035209,19.661934 L23.9559679,13.4899465 C23.3260797,13.0067516 22.9619572,12.2505288 22.9752248,11.4531038 C22.9884924,10.6556787 23.3775674,9.91217172 24.023176,9.45051037 L31.9674276,3.7674676 Z"/>
    <path d="M3.75024183,0 L21.5763913,0 C23.6475927,0 25.3266332,1.69277414 25.3266332,3.78091687 L25.3266332,20.2190831 C25.3266332,22.3072259 23.6475927,24 21.5763913,24 L3.75024183,24 C1.67904046,24 5.55147311e-16,22.3072259 0,20.2190831 L0,3.78091687 C-2.77573655e-16,1.69277414 1.67904046,0 3.75024183,0 Z"/>
  </g>
</svg>
