<svg xmlns="http://www.w3.org/2000/svg" width="20" height="20" viewBox="0 0 20 20">
  <path fill="#BFBFBF" fill-rule="evenodd" d="M10.6729497,9.9609375 L19.8102679,0.818359375 C20.0004134,0.62890625 19.9921462,0.328125 19.7895999,0.1484375 C19.5891204,-0.03125 19.2729001,-0.0234375 19.0806878,0.16796875 L9.98470569,9.27148438 L0.886656746,0.16796875 C0.696511243,-0.0234375 0.380291005,-0.03125 0.177744709,0.1484375 C-0.0227347884,0.328125 -0.0330687831,0.626953125 0.15707672,0.818359375 L9.29646164,9.9609375 L0.15707672,19.1035156 C-0.0330687831,19.2929688 -0.0248015873,19.59375 0.177744709,19.7734375 C0.274884259,19.859375 0.398892196,19.9023438 0.520833333,19.9023438 C0.653108466,19.9023438 0.787450397,19.8535156 0.884589947,19.7539062 L9.98263889,10.6503906 L19.0806878,19.7539062 C19.1798942,19.8535156 19.3121693,19.9023438 19.4444444,19.9023438 C19.5684524,19.9023438 19.6924603,19.859375 19.7875331,19.7734375 C19.9880126,19.59375 19.9983466,19.2949219 19.8082011,19.1035156 L10.6729497,9.9609375 Z"/>
</svg>
