<svg xmlns="http://www.w3.org/2000/svg" width="26" height="26" viewBox="0 0 26 26">
  <path fill="#8590A6" d="M0.932616397,8.97889676 C0.933844874,9.14501512 0.845926359,9.29904317 0.702264893,9.382459 C0.558603427,9.46587483 0.381249812,9.46587483 0.237588346,9.382459 C0.0939268798,9.29904317 0.00600836469,9.14501512 0.00723684211,8.97889676 L0.00723684211,2.936083 C0.00723684211,1.31758603 1.3305415,0.00723684211 2.95923583,0.00723684211 L8.68555162,0.00723684211 C8.85166998,0.00600836469 9.00569802,0.0939268798 9.08911386,0.237588346 C9.17252969,0.381249812 9.17252969,0.558603427 9.08911386,0.702264893 C9.00569802,0.845926359 8.85166998,0.933844874 8.68555162,0.932616397 L2.95923583,0.932616397 C1.83949899,0.932616397 0.932616397,1.83023785 0.932616397,2.936083 L0.932616397,8.97889676 Z M8.68555162,24.0673836 C8.85166998,24.0661551 9.00569802,24.1540736 9.08911386,24.2977351 C9.17252969,24.4413966 9.17252969,24.6187502 9.08911386,24.7624117 C9.00569802,24.9060731 8.85166998,24.9939916 8.68555162,24.9927632 L2.95923583,24.9927632 C1.3305415,24.9927632 0.00723684211,23.6888917 0.00723684211,22.0777834 L0.00723684211,16.3144484 C0.00600836469,16.14833 0.0939268798,15.994302 0.237588346,15.9108861 C0.381249812,15.8274703 0.558603427,15.8274703 0.702264893,15.9108861 C0.845926359,15.994302 0.933844874,16.14833 0.932616397,16.3144484 L0.932616397,22.0777834 C0.932616397,23.1753036 1.83858806,24.0673836 2.95923583,24.0673836 L8.68555162,24.0673836 Z M16.0211032,0.932616397 C15.7669019,0.930736529 15.5618225,0.724134874 15.5618225,0.469926619 C15.5618225,0.215718365 15.7669019,0.00911670996 16.0211032,0.00723684211 L22.0990638,0.00723684211 C23.6990638,0.00723684211 24.9927885,1.32036943 24.9927885,2.936083 L24.9927885,8.97889676 C24.9927885,9.23444026 24.7856295,9.44159919 24.530086,9.44159919 C24.2745425,9.44159919 24.0673836,9.23444026 24.0673836,8.97889676 L24.0673836,2.936083 C24.0673836,1.82839069 23.1845395,0.932616397 22.0990638,0.932616397 L16.0211285,0.932616397 L16.0211032,0.932616397 Z M24.0673836,16.3144484 C24.0661551,16.14833 24.1540736,15.994302 24.2977351,15.9108861 C24.4413966,15.8274703 24.6187502,15.8274703 24.7624117,15.9108861 C24.9060731,15.994302 24.9939916,16.14833 24.9927632,16.3144484 L24.9927632,22.0777834 C24.9927632,23.6870445 23.6972166,24.9927632 22.0990638,24.9927632 L16.0211285,24.9927632 C15.7669272,24.9908833 15.5618478,24.7842816 15.5618478,24.5300734 C15.5618478,24.2758651 15.7669272,24.0692635 16.0211285,24.0673836 L22.0990638,24.0673836 C23.1919172,24.061279 24.0730308,23.1706393 24.0673836,22.0777834 L24.0673836,16.3144484 Z M8.09883603,7.51214575 C8.48997976,7.51214575 8.68555162,7.70770918 8.68555162,8.09883603 L8.68555162,9.85986842 C8.68555162,10.2509953 8.48997976,10.4465587 8.09883603,10.4465587 C7.70770918,10.4465587 7.51214575,10.2509953 7.51214575,9.85986842 L7.51214575,8.09883603 C7.51214575,7.70770918 7.70770918,7.51214575 8.09883603,7.51214575 Z M17.1945091,7.51214575 C17.585636,7.51214575 17.7811994,7.70770918 17.7811994,8.09883603 L17.7811994,9.85986842 C17.7811994,10.2509953 17.585636,10.4465587 17.1945091,10.4465587 C16.8033823,10.4465587 16.6078188,10.2509953 16.6078188,9.85986842 L16.6078188,8.09883603 C16.6078188,7.70770918 16.8033823,7.51214575 17.1945091,7.51214575 Z M12.5009362,9.03997976 C12.4735299,8.79011481 12.6506185,8.56407274 12.8997808,8.53088043 C13.1489431,8.49768811 13.3790304,8.66948802 13.4179909,8.91781377 C13.9408401,12.8229504 13.1681427,14.7718117 10.9499747,14.2193826 C10.7095586,14.1514746 10.5664602,13.9049844 10.6266988,13.662533 C10.6869375,13.4200816 10.9287589,13.2692273 11.173001,13.3217358 C12.456503,13.6410172 12.949747,12.39542 12.5009362,9.03995445 L12.5009362,9.03997976 Z M8.5846913,16.6142966 C8.49840333,16.4732933 8.49389433,16.2969668 8.57286278,16.1517376 C8.65183124,16.0065084 8.80227996,15.9144402 8.96753637,15.9102143 C9.13279279,15.9059884 9.28775051,15.9902467 9.37403846,16.13125 C9.88390688,16.9659413 11.173001,17.5544787 12.6480769,17.5544787 C14.153669,17.5544787 15.4612601,16.9418775 15.9498482,16.0849696 C16.0318421,15.9411549 16.1843318,15.8520078 16.349876,15.8511092 C16.5154202,15.8502106 16.6688688,15.937697 16.752419,16.0806132 C16.8359693,16.2235294 16.8369281,16.400163 16.7549342,16.5439777 C16.0831225,17.7192055 14.4599696,18.4798836 12.6480516,18.4798836 C10.8740891,18.4798836 9.27963057,17.7515941 8.58466599,16.6142966 L8.5846913,16.6142966 Z"/>
</svg>
