<svg xmlns="http://www.w3.org/2000/svg" width="25" height="25" viewBox="0 0 25 25">
  <path fill="#D81E06" d="M12.5,0.0122910521 C5.59547244,0.0122910521 0,5.60226155 0,12.5 C0,19.3977384 5.59547244,24.9877089 12.5,24.9877089 C19.4045276,24.9877089 25,19.3977384 25,12.5 C25,5.60226155 19.4045276,0.0122910521 12.5,0.0122910521 Z M17.4655512,16.6199607 C17.6968504,16.8510324 17.6968504,17.2295969 17.4655512,17.4606686 C17.3499016,17.5762045 17.1973425,17.6352016 17.0447835,17.6352016 C16.8922244,17.6352016 16.7396654,17.5762045 16.6240157,17.4606686 L12.5,13.340708 L8.37598425,17.4606686 C8.26033465,17.5762045 8.10777559,17.6352016 7.95521654,17.6352016 C7.80265748,17.6352016 7.65009843,17.5762045 7.53444882,17.4606686 C7.30314961,17.2295969 7.30314961,16.8510324 7.53444882,16.6199607 L11.6584646,12.5 L7.53444882,8.38003933 C7.30314961,8.14896755 7.30314961,7.77040315 7.53444882,7.53933137 C7.76574803,7.30825959 8.14468504,7.30825959 8.37598425,7.53933137 L12.5,11.659292 L16.6240157,7.53933137 C16.855315,7.30825959 17.234252,7.30825959 17.4655512,7.53933137 C17.6968504,7.77040315 17.6968504,8.14896755 17.4655512,8.38003933 L13.3415354,12.5 L17.4655512,16.6199607 Z"/>
</svg>
