<svg xmlns="http://www.w3.org/2000/svg" width="25" height="18" viewBox="0 0 25 18">
  <g fill="#0284FF" fill-rule="evenodd">
    <path fill-rule="nonzero" d="M24.6798595,1.54834056 C24.4875097,1.43294824 24.2501952,1.43230718 24.0565964,1.54577629 L19.3696331,4.28698496 C19.3340359,4.30749917 19.3115535,4.33955257 19.2815769,4.36519533 C18.9811866,4.41135225 18.7469946,4.66649751 18.7469946,4.9876728 L18.7469946,15.5031186 C18.7469946,16.1570084 18.2286495,16.6890952 17.5910227,16.6890952 L2.4141296,16.6890952 C1.77712725,16.6890952 1.2587822,16.1570083 1.2587822,15.5031185 L1.2587822,2.48814691 C1.2587822,1.8342571 1.77712725,1.30217027 2.4141296,1.30217027 L17.840203,1.30217027 C18.1855582,1.30217027 18.4647151,1.01497162 18.4647151,0.661101836 C18.4647151,0.307232053 18.1855582,0.020033399 17.840203,0.020033399 L2.4141296,0.020033399 C1.0882904,0.020033399 0.0097579918,1.12715859 0.0097579918,2.48814691 L0.0097579918,15.5037596 C0.0097579918,16.8647479 1.0882904,17.9718731 2.41412957,17.9718731 L17.5916471,17.9718731 C18.9174863,17.9718731 19.9966432,16.8647479 19.9966432,15.5037596 L19.9966432,13.474778 L24.0372365,16.0486678 C24.137783,16.1134157 24.2520687,16.144828 24.3663544,16.144828 C24.470648,16.144828 24.575566,16.1179032 24.6698673,16.0640534 C24.8678376,15.9505843 24.990242,15.7364675 24.990242,15.5031185 L24.990242,2.10286478 C24.990242,1.87464441 24.8722092,1.66309182 24.6798595,1.54834056 Z M23.7412178,14.3504775 L20.0522248,12.0009616 C20.0347385,11.9894224 20.0141296,11.9887813 19.9960187,11.9798063 L19.9960187,5.39603339 L23.7412178,3.20614356 L23.7412178,14.3504775 Z"/>
    <path d="M2.5652615,3.89849749 C2.5652615,4.60660214 3.12446868,5.18063438 3.8142857,5.18063438 C4.50410271,5.18063438 5.06330989,4.60660214 5.06330989,3.89849749 C5.06330989,3.19039283 4.50410271,2.6163606 3.8142857,2.6163606 C3.12446868,2.6163606 2.5652615,3.19039283 2.5652615,3.89849749 Z"/>
  </g>
</svg>
