<svg xmlns="http://www.w3.org/2000/svg" width="25" height="25" viewBox="0 0 25 25">
  <path d="M22.0226378,25 L17.2613189,25 C16.9315945,25 16.6658465,24.734252 16.6658465,24.4045276 C16.6658465,24.0748031 16.9315945,23.8090551 17.2613189,23.8090551 L22.0226378,23.8090551 C23.0068898,23.8090551 23.8090551,23.0068898 23.8090551,22.0226378 L23.8090551,17.2613189 C23.8090551,16.9315945 24.0748031,16.6658465 24.4045276,16.6658465 C24.734252,16.6658465 25,16.9315945 25,17.2613189 L25,22.0226378 C25,23.663878 23.663878,25 22.0226378,25 Z M7.73622047,25 L2.97490157,25 C1.33366142,25 0,23.663878 0,22.0226378 L0,17.2613189 C0,16.9315945 0.265748031,16.6658465 0.595472441,16.6658465 C0.92519685,16.6658465 1.19094488,16.9315945 1.19094488,17.2613189 L1.19094488,22.0226378 C1.19094488,23.0068898 1.99311024,23.8090551 2.9773622,23.8090551 L7.7386811,23.8090551 C8.06840551,23.8090551 8.33415354,24.0748031 8.33415354,24.4045276 C8.33169291,24.734252 8.06594488,25 7.73622047,25 Z M24.4045276,8.33415354 C24.0748031,8.33415354 23.8090551,8.06840551 23.8090551,7.7386811 L23.8090551,2.9773622 C23.8090551,1.99311024 23.0068898,1.19094488 22.0226378,1.19094488 L17.2613189,1.19094488 C16.9315945,1.19094488 16.6658465,0.92519685 16.6658465,0.595472441 C16.6658465,0.265748031 16.9315945,0 17.2613189,0 L22.0226378,0 C23.663878,0 25,1.33612205 25,2.9773622 L25,7.7386811 C25,8.06594488 24.7317913,8.33415354 24.4045276,8.33415354 Z M0.595472441,8.33415354 C0.265748031,8.33415354 0,8.06594488 0,7.7386811 L0,2.9773622 C0,1.33612205 1.33366142,0 2.97490157,0 L7.73622047,0 C8.06594488,0 8.33169291,0.265748031 8.33169291,0.595472441 C8.33169291,0.92519685 8.06594488,1.19094488 7.73622047,1.19094488 L2.97490157,1.19094488 C1.99064961,1.19094488 1.18848425,1.99311024 1.18848425,2.9773622 L1.18848425,7.7386811 C1.18848425,8.06594488 0.92273622,8.33415354 0.595472441,8.33415354 Z M25,12.5 C25,12.1702756 24.734252,11.9045276 24.4045276,11.9045276 L0.595472441,11.9045276 C0.265748031,11.9045276 0,12.1702756 0,12.5 C0,12.8297244 0.265748031,13.0954724 0.595472441,13.0954724 L24.4045276,13.0954724 C24.7317913,13.0954724 25,12.8297244 25,12.5 Z" opacity=".636"/>
</svg>
