<svg xmlns="http://www.w3.org/2000/svg" width="28" height="25" viewBox="0 0 28 25">
  <path fill="#8590A6" d="M0,11 L11,11 L11,0 L0,0 L0,11 Z M2,2 L9,2 L9,9 L2,9 L2,2 Z M0,25 L11,25 L11,14 L0,14 L0,25 Z M2,16 L9,16 L9,23 L2,23 L2,16 Z M14.464,3 L27,3 C27.5522847,3 28,2.55228475 28,2 C28,1.44771525 27.5522847,1 27,1 L14.464,1 C13.9117153,1 13.464,1.44771525 13.464,2 C13.464,2.55228475 13.9117153,3 14.464,3 Z M27,15 L14.464,15 C13.9117153,15 13.464,15.4477153 13.464,16 C13.464,16.5522847 13.9117153,17 14.464,17 L27,17 C27.5522847,17 28,16.5522847 28,16 C28,15.4477153 27.5522847,15 27,15 Z M27,8 L14.464,8 C13.9117153,8 13.464,8.44771525 13.464,9 C13.464,9.55228475 13.9117153,10 14.464,10 L27,10 C27.5522847,10 28,9.55228475 28,9 C28,8.44771525 27.5522847,8 27,8 Z M27,22 L14.464,22 C13.9117153,22 13.464,22.4477153 13.464,23 C13.464,23.5522847 13.9117153,24 14.464,24 L27,24 C27.5522847,24 28,23.5522847 28,23 C28,22.4477153 27.5522847,22 27,22 Z"/>
</svg>
