<svg xmlns="http://www.w3.org/2000/svg" width="21" height="25" viewBox="0 0 21 25">
  <path fill="#8590A6" d="M13.2358333,20.1608333 C12.8162559,20.1114033 12.5000557,19.7558124 12.5,19.3333333 L12.5,17.2308333 C12.4998897,16.9636727 12.6278769,16.7126566 12.8441667,16.5558333 C14.2208333,15.5591667 15.4266667,13.96 16.0925,12.1508333 C16.1788434,11.9160716 16.3660747,11.7325115 16.6025,11.6508333 C16.8566667,11.5633333 17.1633333,11.02 17.4466667,9.80916667 C17.6008333,9.15416667 17.42,8.7425 17.015,8.49666667 C16.788795,8.35933452 16.6412634,8.12272711 16.6175,7.85916667 C16.2616667,3.88833333 14.0141667,1.66666667 10.475,1.66666667 C6.875,1.66666667 4.53916667,3.96 4.2075,7.98 C4.18554954,8.24306474 4.04025563,8.48017203 3.81583333,8.61916667 C3.38833333,8.88583333 3.23583333,9.2275 3.39333333,9.76583333 C3.69,10.7783333 4.01416667,11.3375 4.35166667,11.5491667 C4.5102869,11.64893 4.63065416,11.7992422 4.69333333,11.9758333 C5.34666667,13.8116667 6.57416667,15.4533333 7.99333333,16.4941667 C8.20709984,16.6511884 8.33334979,16.9005939 8.33333333,17.1658333 L8.33333333,19.3333333 C8.3332776,19.7558124 8.01707741,20.1114033 7.5975,20.1608333 C4.33916667,20.5441667 2.06083333,21.5775 1.71333333,22.47 C1.77333333,22.4975 1.84666667,22.5266667 1.93166667,22.5558333 C2.37916667,22.7125 3.065,22.8558333 3.94,22.975 C5.64583333,23.2066667 7.98083333,23.3333333 10.4166667,23.3333333 C12.8525,23.3333333 15.1875,23.2066667 16.8933333,22.975 C17.7683333,22.8558333 18.4541667,22.7125 18.9016667,22.5558333 C18.9875,22.5266667 19.06,22.4975 19.12,22.47 C18.7725,21.5775 16.4941667,20.545 13.2366667,20.1616667 L13.2358333,20.1608333 Z M14.1666667,18.6041667 C18.1083333,19.1941667 20.8333333,20.6658333 20.8333333,22.7025 C20.8333333,24.4475 16.7666667,25 10.4166667,25 C4.06666667,25 0,24.4475 0,22.7025 C0,20.6658333 2.725,19.1941667 6.66666667,18.6041667 L6.66666667,17.575 C5.19166667,16.3891667 3.94333333,14.6858333 3.21416667,12.78 C2.59083333,12.275 2.14833333,11.4441667 1.79416667,10.2333333 C1.46083333,9.09666667 1.79583333,8.115 2.58416667,7.4575 C3.11083333,2.825 6.1025,0 10.475,0 C14.7875,0 17.6883333,2.75333333 18.2375,7.32916667 C19.0041667,7.97666667 19.35,8.99333333 19.07,10.19 C18.7233333,11.6683333 18.2666667,12.5991667 17.5341667,13.045 C16.7933333,14.8841667 15.5816667,16.5133333 14.1666667,17.6433333 L14.1666667,18.6041667 Z"/>
</svg>
