<svg xmlns="http://www.w3.org/2000/svg" width="25" height="25" viewBox="0 0 25 25">
  <path fill="#00AC47" d="M12.5,0.0195749441 C5.60893855,0.0195749441 0.0251396648,5.61241611 0.0251396648,12.5083893 C0.0251396648,19.4043624 5.61173184,24.9972036 12.5,24.9972036 C19.3882682,24.9972036 24.9748603,19.4043624 24.9748603,12.5083893 C24.9748603,5.61241611 19.3882682,0.0195749441 12.5,0.0195749441 Z M21.2039106,7.81319911 L9.82122905,19.2058166 C9.7122905,19.314877 9.5698324,19.3708054 9.4273743,19.3708054 C9.2849162,19.3708054 9.1424581,19.314877 9.03351955,19.2058166 L3.79329609,13.9653244 C3.57541899,13.7472036 3.57541899,13.3920582 3.79329609,13.1739374 C4.01117318,12.9558166 4.36592179,12.9558166 4.58379888,13.1739374 L9.42458101,18.0201342 L20.4106145,7.02181208 C20.6284916,6.80369128 20.9832402,6.80369128 21.2011173,7.02181208 C21.4189944,7.23993289 21.4217877,7.5950783 21.2039106,7.81319911 Z"/>
</svg>
