<svg xmlns="http://www.w3.org/2000/svg" width="30" height="24" viewBox="0 0 30 24">
  <g fill="#8590A6">
    <path d="M25,8.667 L18,8.667 C17.4477153,8.667 17,9.11471525 17,9.667 C17,10.2192847 17.4477153,10.667 18,10.667 L25,10.667 C25.5522847,10.667 26,10.2192847 26,9.667 C26,9.11471525 25.5522847,8.667 25,8.667 Z M25,13.667 L18,13.667 C17.4477153,13.667 17,14.1147153 17,14.667 C17,15.2192847 17.4477153,15.667 18,15.667 L25,15.667 C25.5522847,15.667 26,15.2192847 26,14.667 C26,14.1147153 25.5522847,13.667 25,13.667 Z M11.636,15.855 L11.636,15.203 C12.599,14.579 13.528,13.483 14.035,12.139 C14.394,11.983 14.652,11.542 14.86,10.756 C15.021,10.147 14.763,9.745 14.414,9.522 C14.242,6.651 12.567,5 10,5 C7.397,5 5.642,6.699 5.507,9.646 C5.191,9.907 4.988,10.326 5.146,10.923 C5.371,11.774 5.649,12.263 6.032,12.45 C6.573,13.658 7.459,14.638 8.364,15.212 L8.364,15.855 C5.845,16.126 4,17.008 4,18.054 C4,19.316 16,19.316 16,18.054 C16,17.008 14.155,16.126 11.636,15.855 Z"/>
    <path d="M27,-2.7533531e-14 L3,-2.7533531e-14 C1.34314575,-2.84217094e-14 -6.88338275e-15,1.34314575 -7.10542736e-15,3 L-7.10542736e-15,21 C-6.88338275e-15,22.6568542 1.34314575,24 3,24 L27,24 C28.6568542,24 30,22.6568542 30,21 L30,3 C30,1.34314575 28.6568542,-2.84217094e-14 27,-2.7533531e-14 Z M28,21 C28,21.5522847 27.5522847,22 27,22 L3,22 C2.44771525,22 2,21.5522847 2,21 L2,3 C2,2.44771525 2.44771525,2 3,2 L27,2 C27.5522847,2 28,2.44771525 28,3 L28,21 Z"/>
  </g>
</svg>
