<svg xmlns="http://www.w3.org/2000/svg" width="25" height="25" viewBox="0 0 25 25">
  <path fill="#8590A6" d="M2.97982283,25 C1.33612205,25 0,23.663878 0,22.0201772 L0,2.97982283 C0,1.33612205 1.33612205,0 2.97982283,0 L22.0201772,0 C23.663878,0 25,1.33612205 25,2.97982283 L25,22.0201772 C25,23.663878 23.663878,25 22.0201772,25 L2.97982283,25 Z M11.8307087,17.6550197 L17.8125,23.7992126 L22.0201772,23.7992126 C23.0019685,23.7992126 23.7992126,23.0019685 23.7992126,22.0201772 L23.7992126,15.5930118 L18.8459646,10.6397638 L11.8307087,17.6550197 Z M1.2007874,21.2204724 L1.2007874,22.0201772 C1.2007874,23.0019685 1.9980315,23.7992126 2.97982283,23.7992126 L16.1441929,23.7992126 L7.66732283,15.4084646 L1.2007874,21.2204724 Z M2.97982283,1.2007874 C1.9980315,1.2007874 1.2007874,1.9980315 1.2007874,2.97982283 L1.2007874,19.5226378 L7.73375984,13.5605315 L10.9940945,16.8208661 L18.8459646,8.80905512 L23.7992126,13.8459646 L23.7992126,2.97982283 C23.7992126,1.9980315 23.0019685,1.2007874 22.0201772,1.2007874 L2.97982283,1.2007874 Z M6.15403543,9.13385827 C4.51033465,9.13385827 3.1742126,7.79773622 3.1742126,6.15403543 C3.1742126,4.51033465 4.51033465,3.1742126 6.15403543,3.1742126 C7.79773622,3.1742126 9.13385827,4.51033465 9.13385827,6.15403543 C9.13385827,7.79773622 7.79527559,9.13385827 6.15403543,9.13385827 Z M6.15403543,4.37253937 C5.17224409,4.37253937 4.375,5.16978346 4.375,6.1515748 C4.375,7.13336614 5.17224409,7.93061024 6.15403543,7.93061024 C7.13582677,7.93061024 7.93307087,7.13336614 7.93307087,6.1515748 C7.93307087,5.16978346 7.13582677,4.37253937 6.15403543,4.37253937 Z"/>
</svg>
