<svg xmlns="http://www.w3.org/2000/svg" width="25" height="25" viewBox="0 0 25 25">
  <path fill="#E0620D" d="M12.509758,24.980484 C5.61139734,24.980484 0.0195159836,19.3886026 0.0195160129,12.490242 C0.0195160422,5.59188138 5.61139737,-5.68434189e-14 12.509758,-5.68434189e-14 C19.4081186,-5.68434189e-14 25,5.59188135 25,12.490242 C25,19.3886027 19.4081186,24.980484 12.509758,24.980484 Z M11.3381733,6.24512099 L11.3381733,14.6760343 C11.3382789,15.3657767 11.8974551,15.9248673 12.5871975,15.9248673 C13.2769398,15.9248673 13.8361161,15.3657767 13.8362217,14.6760343 L13.8362217,6.24512099 C13.8361161,5.55537865 13.2769398,4.996288 12.5871975,4.996288 C11.8974551,4.996288 11.3382789,5.55537865 11.3381733,6.24512099 Z M12.509758,19.9843872 C13.199575,19.9843872 13.7587822,19.42518 13.7587822,18.735363 C13.7587822,18.045546 13.199575,17.4863388 12.509758,17.4863388 C11.819941,17.4863388 11.2607338,18.045546 11.2607338,18.735363 C11.2607338,19.42518 11.819941,19.9843872 12.509758,19.9843872 Z"/>
</svg>
